<svg xmlns="http://www.w3.org/2000/svg" width="64" height="64" viewBox="0 0 21.664 21.665">
    <g>
        <path d="M2.756 20.725h2.95c.04.257.254.458.523.458h6.706c.27 0 .482-.2.523-.458h2.95c.498 0 .902-.404.902-.903H1.854c0 .5.404.903.902.903z"/>
        <path d="M20.865 11.444c-.752-.61-1.81-.62-2.508-.542.02-.486.03-.983.03-1.5H0c0 4.97.752 8.556 5.51 9.894h7.367c1.885-.53 3.135-1.418 3.964-2.6 1.807-.035 4.712-.746 4.82-3.24.048-1.092-.406-1.698-.795-2.012zm-3.267 3.826c.346-.89.55-1.89.664-2.988.488-.08 1.33-.13 1.754.215.078.064.32.262.293.9-.058 1.293-1.662 1.727-2.712 1.873z"/>
        <path d="M7.49 8.704s3.5-.257 1.897-3.208C8.1 3.126 8.393 1.736 10.04.48c0 0-5.397 1.376-2.25 5.63 1.156 1.855-.3 2.594-.3 2.594z"/>
        <path d="M9.85 8.468s2.804-.59 1.278-2.846c-.554-.978.21-1.327.21-1.327s-1.805.057-1.043 1.608c.61 1.247.43 1.955-.445 2.565z"/>
    </g>
</svg>
