<svg xmlns="http://www.w3.org/2000/svg" width="64" height="64" viewBox="0 0 100 100">
    <path d="M79.514 28C69.118 28 57.724 33.792 50 42.577 42.275 33.792 30.88 28 20.486 28 10.582 28 0 33.78 0 50s10.582 22 20.486 22C30.883 72 42.276 66.21 50 57.426 57.723 66.21 69.117 72 79.512 72 89.418 72 100 66.22 100 50S89.418 28 79.514 28zM20.486 63.2C12.926 63.2 9.09 58.76 9.09 50c0-8.757 3.836-13.2 11.396-13.2 8.36 0 18.07 5.427 24.03 13.2-5.96 7.773-15.666 13.2-24.03 13.2zm59.026 0c-8.36 0-18.07-5.427-24.03-13.2 5.96-7.773 15.67-13.2 24.032-13.2 7.562 0 11.396 4.442 11.396 13.2-.002 8.76-3.836 13.2-11.398 13.2z" />
</svg>
