<svg xmlns="http://www.w3.org/2000/svg" width="64" height="64" viewBox="0 0 27.774 27.774">
    <path d="M10.398 22.81h4.618v4.965h-4.618V22.81zm10.66-21.216C19.854.532 17.612 0 14.33 0c-3.71 0-6.205.514-7.482 1.543-1.277 1.027-1.916 3.027-1.916 6l-.02 1.008h4.576l-.02-1.048c0-1.424.303-2.377.907-2.854.604-.477 1.814-.717 3.632-.717 1.936 0 3.184.23 3.74.677.56.45.837 1.457.837 3.017 0 1.883-.745 3.133-2.237 3.752l-1.797.766c-1.882.78-3.044 1.538-3.49 2.27-.44.732-.664 2.242-.664 4.53h4.68v-.647c0-1.41.987-2.533 2.965-3.365 2.03-.86 3.344-1.746 3.936-2.65.592-.91.888-2.5.888-4.772 0-2.883-.603-4.853-1.806-5.914z" />
</svg>
